<svg width="24" height="24" viewBox="0 0 24 24" fill="none" xmlns="http://www.w3.org/2000/svg">
    <path d="M22.25 12C22.9404 12 23.5054 12.5601 23.4673 13.2494C23.3429 15.4967 22.8332 17.6413 21.4238 19.4291C19.7551 21.5459 17.4223 23.0392 14.8014 23.6684C12.1804 24.2977 9.42393 24.0262 6.9761 22.8977C4.52827 21.7693 2.53164 19.8495 1.30794 17.4479C0.084239 15.0463 -0.29526 12.3026 0.230592 9.65892C0.756443 7.01529 2.15702 4.62567 4.20664 2.87513C6.25626 1.12459 8.83555 0.115079 11.5289 0.00925654C13.821 -0.0808008 16.0821 0.488096 18.049 1.63609C18.6213 1.97017 18.7376 2.72645 18.3481 3.26262C17.9585 3.79879 17.211 3.91017 16.6304 3.59051C15.1067 2.7515 13.3762 2.33853 11.6231 2.40741C9.46844 2.49206 7.40501 3.29968 5.76531 4.70011C4.12562 6.10054 3.00516 8.01223 2.58448 10.1271C2.16379 12.242 2.46739 14.437 3.44635 16.3583C4.42531 18.2796 6.02262 19.8154 7.98088 20.7182C9.93915 21.621 12.1443 21.8381 14.2411 21.3348C16.3379 20.8314 18.2041 19.6367 19.5391 17.9433C20.6141 16.5796 20.9051 14.9563 20.9777 13.2498C21.007 12.56 21.5597 12 22.25 12Z" fill="#D9D9D9"/>
</svg>
